<svg width="424" height="424" viewBox="0 0 424 424" fill="none" xmlns="http://www.w3.org/2000/svg">
  <g clip-path="url(#clip0_53_13)">
    <path d="M408.375 224H239.625C230.996 224 224 230.996 224 239.625V408.375C224 417.004 230.996 424 239.625 424H408.375C417.004 424 424 417.004 424 408.375V239.625C424 230.996 417.004 224 408.375 224Z" fill="#3079C7" />
    <path fill-rule="evenodd" clip-rule="evenodd" d="M341.592 380.621V402.199C345.102 403.998 349.252 405.346 354.044 406.245C358.835 407.145 363.885 407.594 369.195 407.594C374.368 407.594 379.284 407.099 383.94 406.11C388.596 405.121 392.68 403.491 396.188 401.222C399.698 398.952 402.476 395.984 404.523 392.32C406.57 388.657 407.594 384.128 407.594 378.734C407.594 374.823 407.009 371.395 405.839 368.45C404.67 365.505 402.982 362.887 400.777 360.595C398.573 358.302 395.93 356.245 392.848 354.424C389.766 352.604 386.291 350.884 382.421 349.266C379.587 348.097 377.045 346.962 374.795 345.861C372.546 344.759 370.634 343.636 369.059 342.489C367.484 341.343 366.27 340.129 365.415 338.848C364.56 337.566 364.133 336.117 364.133 334.498C364.133 333.015 364.515 331.678 365.28 330.487C366.045 329.295 367.125 328.273 368.52 327.419C369.914 326.564 371.623 325.902 373.648 325.429C375.673 324.957 377.923 324.721 380.397 324.721C382.197 324.721 384.098 324.856 386.099 325.126C388.102 325.395 390.115 325.811 392.14 326.373C394.164 326.935 396.132 327.643 398.045 328.498C399.956 329.352 401.723 330.341 403.342 331.464V311.302C400.058 310.044 396.47 309.111 392.578 308.504C388.687 307.897 384.221 307.594 379.182 307.594C374.053 307.594 369.195 308.145 364.605 309.246C360.016 310.347 355.978 312.066 352.491 314.404C349.005 316.742 346.249 319.72 344.224 323.339C342.2 326.958 341.188 331.284 341.188 336.32C341.188 342.748 343.043 348.232 346.755 352.773C350.467 357.312 356.102 361.156 363.66 364.303C366.63 365.517 369.397 366.708 371.961 367.877C374.526 369.046 376.741 370.259 378.609 371.518C380.476 372.777 381.949 374.148 383.029 375.631C384.109 377.115 384.648 378.801 384.648 380.689C384.648 382.082 384.311 383.375 383.636 384.566C382.962 385.757 381.938 386.791 380.566 387.668C379.194 388.545 377.484 389.23 375.437 389.724C373.39 390.219 370.994 390.466 368.249 390.466C363.57 390.466 358.937 389.646 354.348 388.005C349.758 386.364 345.506 383.903 341.592 380.621ZM305.627 326.923H333.375V309.156H256.031V326.923H283.644V406.031H305.627V326.923Z" fill="white" />
    <path d="M184.375 224H15.625C6.99555 224 0 230.996 0 239.625V408.375C0 417.004 6.99555 424 15.625 424H184.375C193.004 424 200 417.004 200 408.375V239.625C200 230.996 193.004 224 184.375 224Z" fill="#5A9BE0" />
    <path d="M184.375 0H15.625C6.99555 0 0 6.99555 0 15.625V184.375C0 193.004 6.99555 200 15.625 200H184.375C193.004 200 200 193.004 200 184.375V15.625C200 6.99555 193.004 0 184.375 0Z" fill="#A7C8F1" />
  </g>
  <defs>
    <clipPath id="clip0_53_13">
      <rect width="424" height="424" fill="white" />
    </clipPath>
  </defs>
</svg>
